<svg width="55" height="55" viewBox="0 0 55 55" fill="none" xmlns="http://www.w3.org/2000/svg">
<path fill-rule="evenodd" clip-rule="evenodd" d="M27.1106 3L48.2214 15.4153V40.1636L27.1106 52.5789L6 40.1636V15.4153L27.1106 3ZM9.4834 38.1861V30.8266L25.3687 40.1642V47.5284L9.4834 38.1861ZM25.3687 36.1385L9.4834 26.8009V19.4412L25.3687 28.7789V36.1385ZM28.8521 47.5287V28.7796L35.0564 25.1326V43.8799L28.8521 47.5287ZM38.5398 41.8313L44.738 38.1861V19.4417L38.5398 23.085V41.8313ZM33.3755 10.7105L27.1106 7.02612L11.1648 16.404L17.4272 20.0851L33.3755 10.7105ZM36.7988 12.7238L20.8516 22.0979L27.1111 25.7773L43.0569 16.4042L36.7988 12.7238Z" fill="#2B2B2B"/>
</svg>
